<svg width="35" height="48" viewBox="0 0 35 48" fill="none" xmlns="http://www.w3.org/2000/svg">
<mask id="mask0_2_1258" style="mask-type:alpha" maskUnits="userSpaceOnUse" x="14" y="16" width="11" height="32">
<path d="M23.8488 33.9058C23.8174 33.746 23.7827 33.5873 23.7448 33.4298C23.3749 31.8952 22.6956 30.4779 21.7751 29.2449C21.7174 29.1711 21.6605 29.0967 21.6043 29.0217C19.8347 26.6621 18.7891 23.7471 18.7891 20.5925C18.7891 19.2119 18.9894 17.8771 19.363 16.6147C16.8537 18.5547 15.1615 21.4671 14.8763 24.7729C14.8479 25.1011 14.8335 25.4333 14.8335 25.7687C14.8335 27.1576 15.4597 28.2593 16.129 29.1337C16.675 29.847 18.9016 31.8665 19.536 33.4228C19.7522 33.9533 19.8807 34.3355 20.0175 34.8075L20.023 34.8267C20.3777 36.0573 20.568 37.3556 20.5691 38.6974L20.5691 38.7092C20.5691 41.8795 17.733 44.8079 15.9472 47.1737C20.1454 45.8021 23.3011 42.191 23.9431 37.7842L23.9473 37.7548C23.9775 37.544 24.0019 37.3313 24.0204 37.1169C24.0487 36.7886 24.0632 36.4565 24.0632 36.1211C24.0632 35.3636 23.9895 34.623 23.8488 33.9058Z" fill="black"/>
</mask>
<g mask="url(#mask0_2_1258)">
<rect x="14.5698" y="16.4378" width="9.49337" height="30.7358" fill="black"/>
</g>
<mask id="mask1_2_1258" style="mask-type:alpha" maskUnits="userSpaceOnUse" x="16" y="0" width="19" height="35">
<path d="M32.0586 25.5974C29.0568 31.0834 23.1555 34.8136 16.3664 34.8136C16.2507 34.8136 16.1352 34.8125 16.0199 34.8103C22.1677 34.6827 27.3744 30.8008 29.3555 25.4066C29.6033 24.732 29.8006 24.0338 29.943 23.3162C29.9576 23.2429 29.9716 23.1694 29.985 23.0957C30.1334 22.2788 30.2109 21.4378 30.2109 20.5791C30.2109 13.8304 25.4256 8.17864 19.0035 6.71383V2.5937V0.0647583C26.9417 1.22174 33.1702 7.52241 34.0579 15.4029C34.1297 16.0402 34.1665 16.6879 34.1665 17.344C34.1665 18.602 34.031 19.829 33.7735 21.0117C33.4201 22.6353 32.8368 24.1753 32.0586 25.5974Z" fill="black"/>
</mask>
<g mask="url(#mask1_2_1258)">
<rect width="15.4267" height="35.4644" transform="matrix(-1 0 0 1 34.1665 -0.461365)" fill="black"/>
</g>
<mask id="mask2_2_1258" style="mask-type:alpha" maskUnits="userSpaceOnUse" x="0" y="3" width="19" height="36">
<path d="M2.70112 29.4394C5.703 34.9254 11.6043 38.6556 18.3933 38.6556C18.5091 38.6556 18.6246 38.6545 18.7398 38.6524C12.5921 38.5247 7.38537 34.6428 5.40422 29.2487C5.15645 28.5741 4.95913 27.8758 4.81673 27.1583C4.80217 27.085 4.7882 27.0114 4.7748 26.9377C4.62632 26.1209 4.54883 25.2799 4.54883 24.4211C4.54883 17.6724 9.33414 12.0207 15.7563 10.5559V6.43574V3.9068C7.81808 5.06378 1.58952 11.3645 0.7019 19.2449C0.630115 19.8823 0.593262 20.5299 0.593262 21.186C0.593262 22.4441 0.728762 23.6711 0.986217 24.8537C1.33967 26.4773 1.92299 28.0174 2.70112 29.4394Z" fill="black"/>
</mask>
<g mask="url(#mask2_2_1258)">
<rect x="0.593262" y="3.38068" width="15.4267" height="35.4644" fill="black"/>
</g>
<mask id="mask3_2_1258" style="mask-type:alpha" maskUnits="userSpaceOnUse" x="14" y="16" width="10" height="31">
<path d="M23.5192 33.4916C23.4878 33.3317 23.4531 33.173 23.4152 33.0156C23.0453 31.4809 22.366 30.0636 21.4455 28.8307C21.3879 28.7568 21.3309 28.6824 21.2747 28.6075C19.5051 26.2478 18.4595 23.3329 18.4595 20.1783C18.4595 18.7976 18.6598 17.4629 19.0334 16.2005C16.5241 18.1404 14.8319 21.0528 14.5467 24.3586C14.5184 24.6869 14.5039 25.019 14.5039 25.3545C14.5039 26.7433 15.1301 27.8451 15.7994 28.7194C16.3454 29.4327 18.572 31.4522 19.2064 33.0086C19.4226 33.5391 19.5511 33.9212 19.6879 34.3932L19.6934 34.4124C20.0481 35.643 20.2384 36.9414 20.2395 38.2831L20.2395 38.2949C20.2395 41.4653 17.4034 44.3936 15.6176 46.7595C19.8158 45.3879 22.9715 41.7768 23.6135 37.3699L23.6177 37.3406C23.6479 37.1297 23.6723 36.917 23.6908 36.7027C23.7191 36.3744 23.7336 36.0423 23.7336 35.7068C23.7336 34.9493 23.6599 34.2087 23.5192 33.4916Z" fill="url(#paint0_linear_2_1258)"/>
</mask>
<g mask="url(#mask3_2_1258)">
<rect x="14.2402" y="16.0236" width="9.49337" height="30.7358" fill="url(#paint1_linear_2_1258)"/>
</g>
<mask id="mask4_2_1258" style="mask-type:alpha" maskUnits="userSpaceOnUse" x="0" y="3" width="19" height="36">
<path d="M2.10786 29.0791C5.10974 34.5651 11.0111 38.2952 17.8001 38.2952C17.9158 38.2952 18.0313 38.2942 18.1466 38.292C11.9988 38.1644 6.79211 34.2825 4.81096 28.8883C4.56319 28.2137 4.36587 27.5155 4.22346 26.7979C4.20891 26.7246 4.19494 26.6511 4.18154 26.5774C4.03306 25.7605 3.95557 24.9195 3.95557 24.0608C3.95557 17.3121 8.74088 11.6603 15.163 10.1955V6.07539V3.54645C7.22482 4.70343 0.996263 11.0041 0.108638 18.8846C0.0368531 19.5219 0 20.1696 0 20.8257C0 22.0837 0.1355 23.3107 0.392956 24.4934C0.74641 26.117 1.32972 27.657 2.10786 29.0791Z" fill="url(#paint2_linear_2_1258)"/>
</mask>
<g mask="url(#mask4_2_1258)">
<rect y="3.02032" width="15.4267" height="35.4644" fill="url(#paint3_linear_2_1258)"/>
</g>
<mask id="mask5_2_1258" style="mask-type:alpha" maskUnits="userSpaceOnUse" x="15" y="0" width="19" height="35">
<path d="M31.4654 25.5326C28.4635 31.0186 22.5622 34.7488 15.7732 34.7488C15.6574 34.7488 15.5419 34.7477 15.4267 34.7456C21.5745 34.6179 26.7811 30.736 28.7623 25.3419C29.0101 24.6673 29.2074 23.969 29.3498 23.2515C29.3643 23.1782 29.3783 23.1046 29.3917 23.0309C29.5402 22.2141 29.6177 21.3731 29.6177 20.5143C29.6177 13.7656 24.8324 8.11388 18.4102 6.64907V2.52894V0C26.3484 1.15698 32.577 7.45765 33.4646 15.3381C33.5364 15.9755 33.5732 16.6231 33.5732 17.2792C33.5732 18.5373 33.4377 19.7643 33.1803 20.9469C32.8268 22.5705 32.2435 24.1106 31.4654 25.5326Z" fill="url(#paint4_linear_2_1258)"/>
</mask>
<g mask="url(#mask5_2_1258)">
<rect width="15.4267" height="35.4644" transform="matrix(-1 0 0 1 33.5732 -0.526184)" fill="url(#paint5_linear_2_1258)"/>
</g>
<defs>
<linearGradient id="paint0_linear_2_1258" x1="19.2835" y1="16.6147" x2="18.9891" y2="47.3505" gradientUnits="userSpaceOnUse">
<stop stop-color="#53DE00"/>
<stop offset="1" stop-color="#8EFA00"/>
</linearGradient>
<linearGradient id="paint1_linear_2_1258" x1="19.1563" y1="16.4402" x2="18.8668" y2="47.354" gradientUnits="userSpaceOnUse">
<stop stop-color="#53DE00"/>
<stop offset="1" stop-color="#8EFA00"/>
</linearGradient>
<linearGradient id="paint2_linear_2_1258" x1="17.8001" y1="-0.526058" x2="17.8001" y2="46.7598" gradientUnits="userSpaceOnUse">
<stop stop-color="#054C00"/>
<stop offset="1" stop-color="#8AFB00"/>
</linearGradient>
<linearGradient id="paint3_linear_2_1258" x1="15.1321" y1="-1.13605" x2="15.1321" y2="47.1236" gradientUnits="userSpaceOnUse">
<stop stop-color="#054C00"/>
<stop offset="1" stop-color="#8AFB00"/>
</linearGradient>
<linearGradient id="paint4_linear_2_1258" x1="15.7732" y1="-4.07251" x2="15.7732" y2="43.2134" gradientUnits="userSpaceOnUse">
<stop stop-color="#054C00"/>
<stop offset="1" stop-color="#8AFB00"/>
</linearGradient>
<linearGradient id="paint5_linear_2_1258" x1="15.1321" y1="-4.15637" x2="15.1321" y2="44.1033" gradientUnits="userSpaceOnUse">
<stop stop-color="#054C00"/>
<stop offset="1" stop-color="#8AFB00"/>
</linearGradient>
</defs>
</svg>
